<svg version="1" xmlns="http://www.w3.org/2000/svg" width="682.667" height="682.667" viewBox="0 0 512.000000 512.000000"><path d="M228.5 1.5C152.6 9.9 83.7 52.1 41.7 116c-8 12.2-21 38.2-26.3 52.5-4.7 12.9-10.7 36.9-12.9 51.5-7.2 50.2 1.5 104.2 24.3 149.8C72 460 165 515.4 265 511.7c78.4-3 149.2-40.1 196.4-103.1 21.1-28.2 38.1-65.8 45-99.6 4.2-21 5.1-29.5 5.1-52.5 0-25.9-1.7-40.3-7.5-63.1-5-19.6-9.4-31.3-19-50.9-12.7-25.9-26.6-45.4-47.3-66.4-20.7-21-41.1-35.7-67.8-49C325.6 5 276.9-3.8 228.5 1.5zm164.5 125V155H176v89.2c0 57.6.4 90.9 1.1 93.8 1.3 6 4.5 10.4 9.4 13.2l4 2.3 101.3.3 101.2.2v56H188.3l-9.5-2.4c-22.4-5.7-38.9-18.9-48.7-39-8-16.3-7.6-10-7.6-136.6 0-112.3 0-112.5 2.1-117.1 4-8.5 10.3-13.9 18.9-16 1.7-.4 58.5-.7 126.3-.8L393 98v28.5zm-24 128V283H198v-57h171v28.5z"/></svg>